<svg width="240" height="279" viewBox="0 0 240 279" fill="none" xmlns="http://www.w3.org/2000/svg">
<path d="M209.621 41.1439V198.863C209.621 241.389 175.147 275.863 132.621 275.863H118.569C76.0434 275.863 41.5693 241.389 41.5693 198.863V41.1439H209.621Z" stroke="white" stroke-width="6"/>
<rect x="37.6206" width="175.001" height="32.7237" rx="16.3618" fill="white"/>
<path d="M228.763 14.5053L228.488 13.3587L227.309 13.3551L26.4889 12.7372L10.305 6.57837C8.30672 5.81794 6.07036 6.82138 5.30993 8.81963C4.54949 10.8179 5.55294 13.0542 7.55119 13.8147L24.7985 20.3782L25.054 20.4754L25.3274 20.4762L222.378 21.0825L229.89 52.4094C230.431 54.6652 228.721 56.8336 226.401 56.8336C223.905 56.8336 222.172 54.3479 223.034 52.0057L225.976 44.0214C226.715 42.0152 225.688 39.7896 223.682 39.0505C221.676 38.3114 219.45 39.3385 218.711 41.3448L215.769 49.329C213.044 56.726 218.518 64.5761 226.401 64.5761C233.727 64.5761 239.127 57.7282 237.419 50.604L228.763 14.5053Z" fill="white" stroke="#264053" stroke-width="3" stroke-linecap="round"/>
<path d="M225.433 52.3156L27.2408 51.7213C23.5475 51.7103 20.5476 54.7012 20.5476 58.3945V58.3945C20.5476 64.3664 27.7906 67.3316 31.9783 63.0741L34.7752 60.2306" stroke="white" stroke-width="5" stroke-linecap="round"/>
<circle cx="28.3728" cy="81.8092" r="6.748" stroke="white" stroke-width="5"/>
<path d="M28.3727 82.0464L19.1247 122.121L3 141.328" stroke="white" stroke-width="5" stroke-linecap="round"/>
<path d="M28.1355 58.8078V74.4583" stroke="white" stroke-width="5" stroke-linecap="round"/>
<path d="M126 113L126 148" stroke="white" stroke-width="6"/>
<path d="M113 119L126 132" stroke="white" stroke-width="6"/>
<path d="M139.393 119L126.393 132" stroke="white" stroke-width="6"/>
<path d="M126 183L126 148" stroke="white" stroke-width="6"/>
<path d="M139.393 177L126.393 164" stroke="white" stroke-width="6"/>
<path d="M113 177L126 164" stroke="white" stroke-width="6"/>
<path d="M95.7874 130.67L126.098 148.17" stroke="white" stroke-width="6"/>
<path d="M94.4834 144.929L112.242 140.17" stroke="white" stroke-width="6"/>
<path d="M107.68 122.071L112.439 139.83" stroke="white" stroke-width="6"/>
<path d="M156.409 165.67L126.099 148.17" stroke="white" stroke-width="6"/>
<path d="M157.91 151.071L140.152 155.83" stroke="white" stroke-width="6"/>
<path d="M144.713 173.929L139.955 156.17" stroke="white" stroke-width="6"/>
<path d="M95.9841 165.67L126.295 148.17" stroke="white" stroke-width="6"/>
<path d="M107.68 173.929L112.439 156.17" stroke="white" stroke-width="6"/>
<path d="M94.4836 151.071L112.242 155.83" stroke="white" stroke-width="6"/>
<path d="M156.606 130.67L126.295 148.17" stroke="white" stroke-width="6"/>
<path d="M144.713 122.071L139.955 139.83" stroke="white" stroke-width="6"/>
<path d="M157.91 144.929L140.151 140.17" stroke="white" stroke-width="6"/>
</svg>
